<svg xmlns="http://www.w3.org/2000/svg" x="0px" y="0px" viewBox="6.478110313415527 6.432240009307861 35.04377746582031 35.13552474975586" enable-background="new 0 0 48 48">
<g>
	<g>
		<g>
			<g>
				
					<path fill="#FFFFFF" stroke="#000000" stroke-width="1" stroke-linecap="round" stroke-linejoin="round" stroke-miterlimit="10" d="      M6.97811,10.68412v2.23122c0,1.01718,0.82459,1.84176,1.84176,1.84176h19.37626v-3.55927      c0-2.34838,0.4403-4.26559,2.78869-4.26559H10.72999C8.65789,6.93224,6.97811,8.61202,6.97811,10.68412z"/>
				
					<path fill="#FFFFFF" stroke="#000000" stroke-width="1" stroke-linecap="round" stroke-linejoin="round" stroke-miterlimit="10" d="      M10.39484,6.9364h22.60827c2.35861,0,4.27063,1.91203,4.27063,4.27063l0.12375,25.59009      c0,2.35861-1.91203,4.27063-4.27063,4.27063H17.26275c-2.35861,0-4.27063-1.91203-4.27063-4.27063l-0.12375-25.6012      C12.86837,8.84586,12.7449,6.9364,10.39484,6.9364z"/>
			</g>
			
				<path fill="#FFFFFF" stroke="#000000" stroke-width="1" stroke-linecap="round" stroke-linejoin="round" stroke-miterlimit="10" d="     M40.83426,36.79299v-1.70833c0-1.01718-0.82459-1.84176-1.84177-1.84176H21.458c-1.01718,0-1.84176,0.82458-1.84176,1.84176     v1.71751c0,2.34838-0.4403,4.26559-2.78869,4.26559h19.73194C38.92038,41.06776,40.83426,39.15388,40.83426,36.79299z"/>
		</g>
	</g>
</g>
<g>
	<g>
		
			<path fill="#FFFFFF" stroke="#000000" stroke-width="1" stroke-linecap="round" stroke-linejoin="round" stroke-miterlimit="10" d="    M37.90638,27.81818H25.52585c-1.72065,0-3.11551-1.39486-3.11551-3.11551v-7.7444c0-1.72065,1.39486-3.11551,3.11551-3.11551    h12.38053c1.72065,0,3.11551,1.39486,3.11551,3.11551v7.7444C41.02189,26.42332,39.62703,27.81818,37.90638,27.81818z"/>
		<g>
			<path fill="none" stroke="#000000" stroke-width="1" stroke-linecap="round" stroke-linejoin="round" stroke-miterlimit="10" d="     M34.70478,18.27955l1.95922,1.95922c0.32679,0.32679,0.32679,0.85661,0,1.18339l-1.95922,1.95922"/>
			<path fill="none" stroke="#000000" stroke-width="1" stroke-linecap="round" stroke-linejoin="round" stroke-miterlimit="10" d="     M29.20745,18.27955l-1.95922,1.95922c-0.32679,0.32679-0.32679,0.85661,0,1.18339l1.95922,1.95922"/>
		</g>
	</g>
</g>
</svg>