<svg xmlns="http://www.w3.org/2000/svg" x="0px" y="0px" viewBox="6.409709930419922 6.36985969543457 35.18057632446289 35.26028060913086" enable-background="new 0 0 48 48">
<g>
	
		<path fill="#FFFFFF" stroke="#000000" stroke-width="1" stroke-linecap="round" stroke-linejoin="round" stroke-miterlimit="10" d="   M23.36393,29.67644h-7.65909c-4.85741,0-8.79513,3.93771-8.79513,8.79513v0.00001c0,1.42977,1.15906,2.58883,2.58882,2.58883   h20.07169c1.42977,0,2.58883-1.15906,2.58883-2.58883v-0.00001C32.15905,33.61415,28.22134,29.67644,23.36393,29.67644z"/>
	
		<path fill="#FFFFFF" stroke="#000000" stroke-width="1" stroke-linecap="round" stroke-linejoin="round" stroke-miterlimit="10" d="   M18.61201,26.28875l-0.00001,0c-3.09911,0.97095-6.39856-0.75426-7.36951-3.85338l-0.75584-2.41251   c-0.97095-3.09911,0.75426-6.39855,3.85337-7.36951l0.00001,0c3.09911-0.97095,6.39856,0.75426,7.36951,3.85337l0.75584,2.41251   C23.43634,22.01835,21.71113,25.31779,18.61201,26.28875z"/>
	
		<path fill="#FFFFFF" stroke="#000000" stroke-width="1" stroke-linecap="round" stroke-linejoin="round" stroke-miterlimit="10" d="   M11.97602,41.13014l5.1176-10.94321l-0.00799-2.84157c-0.00146-0.51867,0.21726-1.0136,0.60176-1.36172l1.47661-1.33685   c0.55605-0.50342,1.363-0.61653,2.03603-0.2854l1.13523,0.55854c0.53996,0.26567,0.9148,0.77983,1.00253,1.37518l0.20273,1.37569   c0.1595,1.08236-0.40469,2.14238-1.39159,2.61456l-0.96019,0.45941c-0.45208,0.2163-0.75261,0.65932-0.78645,1.15933   l-2.42627,9.15631L11.97602,41.13014z"/>
</g>
<g>
	
		<line fill="none" stroke="#000000" stroke-width="1" stroke-linecap="round" stroke-linejoin="round" stroke-miterlimit="10" x1="26.97602" y1="20.44832" x2="26.97602" y2="20.44832"/>
</g>
<g>
	
		<circle fill="#FFFFFF" stroke="#000000" stroke-width="1" stroke-linecap="round" stroke-linejoin="round" stroke-miterlimit="10" cx="30.76484" cy="17.47105" r="1.76653"/>
	
		<circle fill="#FFFFFF" stroke="#000000" stroke-width="1" stroke-linecap="round" stroke-linejoin="round" stroke-miterlimit="10" cx="36.81083" cy="11.14932" r="4.27946"/>
</g>
</svg>