<svg xmlns="http://www.w3.org/2000/svg" x="0px" y="0px" viewBox="12.519341468811035 11.69225025177002 38.96200180053711 40.61574935913086" enable-background="new 0 0 64 64">
<g>
	<g>
	</g>
	
		<path fill="#FFFFFF" stroke="#000000" stroke-width="1" stroke-linecap="round" stroke-linejoin="round" stroke-miterlimit="10" d="   M28.687,51.808h-3.788c-0.939,0-1.701-0.761-1.701-1.701V40.016c0-0.939,0.761-1.701,1.701-1.701h3.788   c0.939,0,1.701,0.761,1.701,1.701v10.092C30.387,51.046,29.626,51.808,28.687,51.808z"/>
	
		<path fill="#FFFFFF" stroke="#000000" stroke-width="1" stroke-linecap="round" stroke-linejoin="round" stroke-miterlimit="10" d="   M41.096,38.315h-2.289c-0.588,0-1.065-0.477-1.065-1.065v-1.166c0-2.207-1.789-3.997-3.997-3.997h0   c-0.659,0-1.193,0.534-1.193,1.193v2.269c0,1.748-0.797,3.4-2.166,4.487h0v10.067c0,0.368,0.299,0.667,0.667,0.667h9.071   c1.62,0,3.002-1.171,3.269-2.769l0.971-5.828C44.701,40.154,43.144,38.315,41.096,38.315z"/>
</g>
<g>
	
		<path fill="#FFFFFF" stroke="#000000" stroke-width="1" stroke-linecap="round" stroke-linejoin="round" stroke-miterlimit="10" d="   M33.128,12.985l0.943,1.911c0.207,0.42,0.608,0.711,1.072,0.779l2.109,0.306c1.167,0.17,1.633,1.604,0.789,2.428l-1.526,1.488   c-0.335,0.327-0.488,0.798-0.409,1.26l0.36,2.1c0.199,1.163-1.021,2.049-2.065,1.5l-1.886-0.992c-0.415-0.218-0.91-0.218-1.325,0   l-1.886,0.992c-1.044,0.549-2.264-0.338-2.065-1.5l0.36-2.1c0.079-0.462-0.074-0.933-0.409-1.26l-1.526-1.488   c-0.845-0.823-0.379-2.258,0.789-2.428l2.109-0.306c0.464-0.067,0.864-0.359,1.072-0.779l0.943-1.911   C31.098,11.928,32.606,11.928,33.128,12.985z"/>
	
		<path fill="#FFFFFF" stroke="#000000" stroke-width="1" stroke-linecap="round" stroke-linejoin="round" stroke-miterlimit="10" d="   M19.125,22.062l0.683,1.384c0.167,0.338,0.489,0.572,0.862,0.626l1.527,0.222c0.939,0.136,1.314,1.29,0.634,1.952l-1.105,1.077   c-0.27,0.263-0.393,0.642-0.329,1.013l0.261,1.521c0.16,0.935-0.821,1.648-1.661,1.207l-1.366-0.718   c-0.333-0.175-0.732-0.175-1.065,0L16.2,31.064c-0.84,0.441-1.821-0.272-1.661-1.207l0.261-1.521   c0.064-0.371-0.059-0.75-0.329-1.013l-1.105-1.077c-0.679-0.662-0.304-1.816,0.634-1.952l1.527-0.222   c0.373-0.054,0.695-0.288,0.862-0.626l0.683-1.384C17.492,21.211,18.705,21.211,19.125,22.062z"/>
	
		<path fill="#FFFFFF" stroke="#000000" stroke-width="1" stroke-linecap="round" stroke-linejoin="round" stroke-miterlimit="10" d="   M46.928,22.062l0.683,1.384c0.167,0.338,0.489,0.572,0.862,0.626L50,24.293c0.939,0.136,1.314,1.29,0.634,1.952l-1.105,1.077   c-0.27,0.263-0.393,0.642-0.329,1.013l0.261,1.521c0.16,0.935-0.821,1.648-1.661,1.207l-1.366-0.718   c-0.333-0.175-0.732-0.175-1.065,0l-1.366,0.718c-0.84,0.441-1.821-0.272-1.661-1.207l0.261-1.521   c0.064-0.371-0.059-0.75-0.329-1.013l-1.105-1.077c-0.679-0.662-0.304-1.816,0.634-1.952l1.527-0.222   c0.373-0.054,0.695-0.288,0.862-0.626l0.683-1.384C45.295,21.211,46.508,21.211,46.928,22.062z"/>
</g>
</svg>