<?xml version="1.0" encoding="UTF-8" standalone="no" ?>
<!DOCTYPE svg PUBLIC "-//W3C//DTD SVG 1.1//EN" "http://www.w3.org/Graphics/SVG/1.1/DTD/svg11.dtd">
<svg xmlns="http://www.w3.org/2000/svg" xmlns:xlink="http://www.w3.org/1999/xlink" version="1.1" width="640" height="480" viewBox="0 0 640 480" xml:space="preserve">
<desc>Created with Fabric.js 3.6.6</desc>
<defs>
</defs>
<rect x="0" y="0" width="100%" height="100%" fill="rgba(0, 0, 0, 0)"></rect>
<g transform="matrix(1 0 0 1 234 254.1)"  >
<path style="stroke: rgb(0,0,0); stroke-width: 1; stroke-dasharray: none; stroke-linecap: round; stroke-dashoffset: 0; stroke-linejoin: round; stroke-miterlimit: 10; fill: none; fill-rule: nonzero; opacity: 1;"  transform=" translate(-234, -254.1)" d="M 233.999 254.10000610351562 L 234.001 254.10000610351562" stroke-linecap="round" />
</g>
<g transform="matrix(1 0 0 1 186 218.1)"  >
<path style="stroke: rgb(0,0,0); stroke-width: 1; stroke-dasharray: none; stroke-linecap: round; stroke-dashoffset: 0; stroke-linejoin: round; stroke-miterlimit: 10; fill: none; fill-rule: nonzero; opacity: 1;"  transform=" translate(-186, -218.1)" d="M 185.999 218.10000610351562 L 186.001 218.10000610351562" stroke-linecap="round" />
</g>
<g transform="matrix(1 0 0 1 93 235.1)"  >
<line style="stroke: rgb(0,0,0); stroke-width: 2; stroke-dasharray: none; stroke-linecap: butt; stroke-dashoffset: 0; stroke-linejoin: miter; stroke-miterlimit: 4; fill: rgb(0,0,0); fill-rule: nonzero; opacity: 1;" vector-effect="non-scaling-stroke"  x1="0" y1="0" x2="0" y2="0" />
</g>
<g transform="matrix(7.3 0 0 7.3 323.11 238.44)" id="circle_10_"  >
<path style="stroke: none; stroke-width: 1; stroke-dasharray: none; stroke-linecap: butt; stroke-dashoffset: 0; stroke-linejoin: miter; stroke-miterlimit: 4; fill: rgb(255,255,255); fill-rule: nonzero; opacity: 1;"  transform=" translate(-32, -32)" d="M 33.475 36.652 c -0.781 0.781 -2.046 0.781 -2.828 0 l -1.58 -1.58 L 22.985 41 h 18.102 l -6.08 -5.879 L 33.475 36.652 z M 44.206 23 H 19.891 L 32 35 L 44.206 23 z M 18 24.006 V 41 h 2.061 l 7.528 -7.405 L 18 24.006 z M 44.061 41 H 46 V 24.128 l -9.468 9.467 L 44.061 41 z M 32 0 C 14.327 0 0 14.327 0 32 s 14.327 32 32 32 s 32 -14.327 32 -32 S 49.673 0 32 0 z M 48 41 c 0 1.104 -0.896 2 -2 2 H 18 c -1.104 0 -2 -0.896 -2 -2 V 23 c 0 -1.104 0.896 -2 2 -2 h 28 c 1.104 0 2 0.896 2 2 V 41 z" stroke-linecap="round" />
</g>
</svg>