<?xml version="1.0" encoding="UTF-8" standalone="no" ?>
<!DOCTYPE svg PUBLIC "-//W3C//DTD SVG 1.1//EN" "http://www.w3.org/Graphics/SVG/1.1/DTD/svg11.dtd">
<svg xmlns="http://www.w3.org/2000/svg" xmlns:xlink="http://www.w3.org/1999/xlink" version="1.1" width="640" height="480" viewBox="0 0 640 480" xml:space="preserve">
<desc>Created with Fabric.js 3.6.6</desc>
<defs>
</defs>
<g transform="matrix(9.79 0 0 9.79 326.22 239.83)"  >
<path style="stroke: none; stroke-width: 1; stroke-dasharray: none; stroke-linecap: butt; stroke-dashoffset: 0; stroke-linejoin: miter; stroke-miterlimit: 4; fill: rgb(255,255,255); fill-rule: evenodd; opacity: 1;"  transform=" translate(-24, -24)" d="M 0 24 C 0 10.7452 10.7452 0 24 0 C 37.2548 0 48 10.7452 48 24 C 48 37.2548 37.2548 48 24 48 C 10.7452 48 0 37.2548 0 24 Z M 16.9605 19.8778 H 11.5216 V 36.2196 H 16.9605 V 19.8778 Z M 17.3188 14.8227 C 17.2835 13.2204 16.1377 12 14.277 12 C 12.4164 12 11.2 13.2204 11.2 14.8227 C 11.2 16.3918 12.3805 17.6473 14.2064 17.6473 H 14.2412 C 16.1377 17.6473 17.3188 16.3918 17.3188 14.8227 Z M 36.5754 26.8497 C 36.5754 21.8303 33.8922 19.4941 30.3131 19.4941 C 27.4254 19.4941 26.1326 21.0802 25.4107 22.1929 V 19.8783 H 19.9711 C 20.0428 21.4117 19.9711 36.22 19.9711 36.22 H 25.4107 V 27.0934 C 25.4107 26.605 25.446 26.1178 25.5898 25.7681 C 25.9829 24.7924 26.8779 23.7822 28.3805 23.7822 C 30.3494 23.7822 31.1365 25.2807 31.1365 27.4767 V 36.2196 H 36.5752 L 36.5754 26.8497 Z" stroke-linecap="round" />
</g>
</svg>