<?xml version="1.0" standalone="no"?>
<!DOCTYPE svg PUBLIC "-//W3C//DTD SVG 20010904//EN"
 "http://www.w3.org/TR/2001/REC-SVG-20010904/DTD/svg10.dtd">
<svg version="1.0" xmlns="http://www.w3.org/2000/svg"
 width="866.000000pt" height="650.000000pt" viewBox="0 0 866.000000 650.000000"
 preserveAspectRatio="xMidYMid meet">

<g transform="translate(0.000000,650.000000) scale(0.100000,-0.100000)"
fill="#000000" stroke="none">
<path d="M3000 4565 l-1315 -1315 1318 -1317 1318 -1317 1317 1317 1317 1317
-1315 1315 c-723 723 -1317 1315 -1320 1315 -3 0 -597 -592 -1320 -1315z
m1482 126 c31 -11 77 -31 102 -46 66 -38 160 -144 196 -220 85 -177 67 -401
-19 -239 -33 61 -141 158 -216 194 -87 42 -154 54 -260 47 -107 -7 -194 -34
-267 -85 -43 -30 -60 -52 -90 -111 -45 -91 -59 -105 -88 -96 -32 10 -60 79
-60 151 0 51 6 74 36 134 114 228 425 354 666 271z m-552 -866 c0 -34 -1 -35
-39 -35 -28 0 -49 -7 -68 -24 l-28 -24 -5 -364 -5 -363 -34 -63 c-19 -34 -50
-77 -70 -94 -85 -75 -224 -109 -365 -89 -169 23 -269 80 -324 185 l-27 51 -5
368 -5 369 -28 24 c-21 18 -40 24 -73 24 -42 0 -44 1 -44 30 l0 30 260 0 260
0 0 -29 c0 -26 -3 -29 -47 -34 -86 -9 -83 5 -83 -424 0 -347 1 -376 19 -411
36 -70 95 -102 189 -102 125 0 210 48 259 148 l28 57 3 328 c2 278 0 332 -13
357 -18 35 -43 50 -84 50 -29 0 -31 3 -31 35 l0 35 180 0 180 0 0 -35z m680 0
l0 -35 -55 0 c-46 0 -60 -4 -81 -25 l-25 -25 3 -435 c3 -499 -4 -466 98 -473
58 -4 60 -5 60 -33 l0 -29 -280 0 -280 0 0 30 c0 30 1 30 53 30 58 0 92 21
102 63 3 12 5 210 3 440 l-3 419 -24 19 c-13 10 -37 19 -55 19 -17 0 -41 3
-53 6 -23 6 -39 36 -28 54 4 6 108 10 286 10 l279 0 0 -35z m862 6 c67 -34
112 -74 142 -126 80 -136 12 -298 -143 -341 l-62 -18 76 -27 c140 -49 200
-126 200 -254 -1 -51 -6 -81 -22 -110 -29 -55 -103 -121 -171 -153 l-57 -27
-342 -3 -343 -3 0 24 c0 29 16 37 76 37 31 0 50 6 64 20 19 19 20 33 20 457 0
435 0 437 -22 460 -18 19 -32 23 -80 23 l-58 0 0 35 0 36 338 -3 c334 -3 337
-3 384 -27z m-1079 -1370 c14 -17 32 -60 42 -103 38 -157 101 -221 219 -222
49 -1 91 10 213 53 148 52 153 53 194 40 63 -21 68 -36 35 -112 -26 -62 -32
-68 -121 -127 -51 -33 -128 -76 -171 -95 -69 -30 -90 -35 -159 -35 -133 1
-189 38 -256 173 -23 45 -46 85 -52 89 -6 4 -41 -37 -83 -95 -77 -110 -135
-164 -184 -173 -45 -10 -85 40 -144 180 -27 64 -54 116 -60 116 -22 -1 -54
-37 -121 -135 -83 -123 -97 -138 -118 -129 -24 9 -51 107 -52 189 0 82 9 98
148 251 91 102 137 135 165 118 9 -5 42 -60 73 -121 61 -124 82 -153 113 -153
30 0 136 114 185 200 67 115 70 120 90 120 11 0 30 -13 44 -29z"/>
<path d="M5178 3782 l-28 -3 0 -198 c0 -210 2 -221 50 -221 77 0 150 46 181
115 25 53 24 147 0 201 -33 72 -118 116 -203 106z"/>
<path d="M5160 3098 c0 -244 1 -247 82 -255 58 -5 113 27 153 91 28 46 30 57
29 137 -1 155 -58 223 -198 236 l-66 6 0 -215z"/>
</g>
</svg>
